<?xml version="1.0" encoding="utf-8"?>
<!-- Generator: Adobe Illustrator 20.0.0, SVG Export Plug-In . SVG Version: 6.00 Build 0)  -->
<!DOCTYPE svg PUBLIC "-//W3C//DTD SVG 1.1//EN" "http://www.w3.org/Graphics/SVG/1.1/DTD/svg11.dtd">
<svg version="1.1" id="Layer_1" xmlns="http://www.w3.org/2000/svg" xmlns:xlink="http://www.w3.org/1999/xlink" x="0px" y="0px"
	 width="225px" height="225px" viewBox="0 0 225 225" style="enable-background:new 0 0 225 225;" xml:space="preserve">
<style type="text/css">
	.st0{fill:#FFFFFF;}
</style>
<circle class="st0" cx="112.5" cy="112.5" r="111.5"/>
<g>
	<path d="M94.2,84.7C88.6,76.9,77.6,66,66.8,66c-7.1,0-10.5,4.4-10.5,8.1c0,4.9,4.1,8.2,14.8,15.1c21.2,13.6,37.6,23,37.6,41.1
		c0,18.9-20.3,25.6-26.2,39.7h-0.4c-13.2-19.1-36.2-22.9-45.6-14.4l-0.7-0.5c1.2-8.6,6.4-24,18.9-24c11.5,0,26.7,15.3,35.9,19.1
		c1.4,0.6,2.6,0.2,3.5-0.9c1.2-1.5,1.9-3.8,1.9-7.5c0-25.4-52.7-32.7-52.7-53.1c0-4.8,4.4-13.4,10.6-21c8-9.9,16.2-14.3,25.1-14.3
		c13.8,0,20.6,10.3,26.4,10.3c2.4,0,4-1.3,5.5-3.3l1.4,1.6C105.8,68.8,97.9,79.5,94.2,84.7"/>
	<path d="M92.5,142.2c0-22.6-53.3-29.7-53.3-53.4l-0.6,0.1c-3.8,26.6,48.6,33.4,53.3,53.5"/>
	<path d="M95.5,81.7c-0.2-3.1,0.7-2.3,3-4.8c2.7-2.9,6.6-4.1,13-4.1c11.8,0,32.7,8.9,51,8.9c16,0,26.9-15.5,31-23.8l-1.7-4.9l-0.3,0
		c-0.9,6.8-6.9,15.3-20,15.3c-12.4,0-36.8-9.5-49.6-9.5c-18.4,0-27.3,13.5-29,24.5l2.4-1.5"/>
	<rect x="155.4" y="78.7" width="3.9" height="79.7"/>
	<path d="M126.9,79.5l2,1.2c-8.5,6.2-15.2,18.1-15.2,32.8c0,24.4,14.2,44.7,37.1,44.7c13.2,0,21.5-6.8,25.6-13.4l0.3,0.1l0.4,5.8
		c-6.4,5.8-20.3,16-37.5,16c-26.9,0-43.2-18.5-43.2-42.8C96.3,101.2,112.1,87.1,126.9,79.5"/>
	<path d="M148.6,78.6l-10.2,5.6c-6.3,3.4-7.6,7.1-7.6,14.1c0,6.2,1.7,16.9,1.7,25.3c0,8.7-1.8,11.4-9.2,14.5l1.3,2.3
		c4.9-2.2,13.2-6.4,18.7-9.9c4.4-2.8,5.2-4.4,5.2-8.9V94.2c0-8.9,0.2-11.7,1.9-14"/>
</g>
</svg>
